PathFileType	3	(X/Y/Z)	D:\Jess\Healthy\Labelled\HA21\20251027\SRRun01.trc
DataRate	CameraRate	NumFrames	NumMarkers	Units	OrigDataRate	OrigDataStartFrame	OrigNumFrames
250.0	250.0	4	33	mm	250.0	36500	4001
Frame#	Time	C7			T10			CLAV			LSHO			RSHO			LASIS			RASIS			LPSIS			RPSIS			LILCR			RILCR			LGTR			LTHI			LLTHI			LLEP			LPSH			LLSH			LDSH			LLMAL			LTOE			L5TH			LHEE			RGTR			RTHI			RLTHI			RLEP			RPSH			RLSH			RDSH			RLMAL			RTOE			R5TH			RHEE			
		X1	Y1	Z1	X2	Y2	Z2	X3	Y3	Z3	X4	Y4	Z4	X5	Y5	Z5	X6	Y6	Z6	X7	Y7	Z7	X8	Y8	Z8	X9	Y9	Z9	X10	Y10	Z10	X11	Y11	Z11	X12	Y12	Z12	X13	Y13	Z13	X14	Y14	Z14	X15	Y15	Z15	X16	Y16	Z16	X17	Y17	Z17	X18	Y18	Z18	X19	Y19	Z19	X20	Y20	Z20	X21	Y21	Z21	X22	Y22	Z22	X23	Y23	Z23	X24	Y24	Z24	X25	Y25	Z25	X26	Y26	Z26	X27	Y27	Z27	X28	Y28	Z28	X29	Y29	Z29	X30	Y30	Z30	X31	Y31	Z31	X32	Y32	Z32	X33	Y33	Z33	

501	145.996	820.6675064007293	1543.898540994287	-905.8724924587631	815.3908934901442	1319.978256448843	-877.0466432210347	876.1571296292153	1489.346786976848	-1052.899887225544	698.5639522225425	1546.923124617292	-1026.069869961448	990.9825188759136	1537.542445856927	-957.6538304659513	721.570833054983	1025.21496856556	-1044.308029796121	949.6570047508388	1059.486520956346	-1055.277709081156	816.3556712895987	1107.485108879164	-872.0889515861555	847.8618807156619	1109.694177712465	-869.2810642263152	678.380559251248	1128.605759087162	-1028.584811502481	1004.553556963205	1153.850201183114	-957.8270197407019	660.1543477003951	919.4121509001918	-926.7348480165158	743.1878928744537	724.7552887001754	-978.1305200689371	694.2469302915492	700.2269777456345	-836.79742913168	722.2457460239365	568.9071538337842	-771.4520484457324	775.8462705976274	466.9631409386768	-776.4979996078408	722.5372594441911	425.0327423330064	-649.3837098157935	779.7010561362656	328.6162773284011	-654.5974980436157	753.69411158513	253.2936101871412	-528.354397756	775.024059827514	96.1844520583137	-582.7734831629735	736.0801474662877	117.3529620921291	-523.2444844255268	808.8815079406704	291.2476574308872	-457.1877437534723	1034.126718075706	948.5187164624975	-998.041413774146	951.932983396465	834.701350334933	-1152.185571816228	997.8431043796392	691.3249934270071	-1069.611900235986	984.380058420012	584.011076408323	-1099.200016658297	936.2592916316881	481.9094206908966	-1165.232515055045	994.2520650915454	393.5226673415677	-1090.912440045675	935.6679703874063	312.2587465589774	-1139.80361626196	957.7270641673293	181.7334329891472	-1085.325683958172	946.2179605656403	115.9204317038196	-1235.510477333243	981.3013313051609	87.8332295864268	-1185.712815015885	900.127497922783	159.860729705374	-1011.236917399645	
502	146	821.02231772727	1544.230267052194	-905.9438980570167	815.5985835138832	1320.565124145387	-877.0020341022124	876.5992539627096	1489.683771435098	-1052.970476627102	699.0865556491541	1547.437488091465	-1026.32148310383	991.3806137584463	1537.847077530324	-957.7162887838078	722.1307105201431	1025.899450194354	-1044.946330251935	950.0355187769488	1059.928519910728	-1055.240018772894	816.1979209893317	1108.686877753623	-872.5181640159773	847.6923308959812	1110.747829843798	-869.5548308594608	679.0972245925112	1129.473296102356	-1029.553154686942	1004.871172727428	1154.575112267573	-957.8545922821291	660.058049459809	920.5074999111094	-927.5955424670785	743.2128343028292	725.319001273162	-978.7420715242612	694.4334367793841	701.0518630236851	-837.2238229383221	722.5127514624278	569.9492960737589	-771.5255235808476	775.8199490085093	467.791378652225	-775.0799158588648	722.7410379217603	428.0019186006305	-647.0406706093158	779.9177401811021	331.5503073676699	-650.6518260730836	754.0501219403588	258.5114960598168	-523.0942130905498	775.3469409717137	100.332151283875	-574.8733656538828	736.6635662876728	122.5723558142386	-515.4719513778199	809.3128919935986	297.9059283295401	-452.7827654552003	1034.294550231368	947.9664443585522	-996.9956702590371	952.2290564825088	832.1386589166555	-1149.967919691054	998.2325511101141	689.821627383335	-1066.221270258418	984.7985416648439	581.9893854350416	-1096.089258823512	936.3829177232834	481.6072244318543	-1165.021287917316	994.374882023906	390.9753321832145	-1093.565572188027	935.8166449335134	311.3095962598802	-1145.312360195738	957.7293733141966	178.6550006731308	-1095.366483846784	945.7717481696001	117.5058108548028	-1247.858135397846	980.649622283174	87.48587821844978	-1198.997959765636	900.1032780616566	154.5492485815837	-1021.911912827152	
503	146.004	821.4002530209744	1544.411200983591	-906.0171646615549	815.8677975210027	1321.015247740318	-876.9141911939505	877.0224938287091	1489.848307557598	-1053.053535773982	699.583835678215	1547.769244035978	-1026.54631542118	991.7964391559682	1537.98473887887	-957.8110585937521	722.6781777488204	1026.486559583941	-1045.54319615616	950.4608808309838	1060.106013648662	-1055.087749827446	816.0799334247799	1109.650403512859	-872.8475297061087	847.5697803815297	1111.556762691427	-869.7358718123443	679.7764591249531	1130.22259333453	-1030.255397493771	1005.185543947523	1154.97154764865	-957.7510261959244	659.9672146539668	921.4327589660816	-928.5051790146441	743.1696668737369	725.7259312588666	-979.618099472415	694.6201514148669	701.5936758612851	-837.9227073223792	722.7845541452485	570.6653833892394	-771.9967180488126	775.7628462958827	468.2927324766258	-773.9535281618939	722.938297255334	430.8149821299097	-644.9813227064352	780.1572648564945	334.3740498992895	-646.8579051607297	754.4231739816579	263.7605063981937	-517.914055059196	775.7387437362016	104.6519346444736	-567.0689764613662	737.2737762944951	127.8926136481148	-507.8372594325589	809.7388608117749	304.5367631074529	-448.4241495451842	1034.469551594196	947.1251200808883	-995.8800756147796	952.4745252896091	829.2157773027465	-1147.602112084751	998.7220482746585	688.1288808538824	-1062.922472483035	985.239941877723	579.8923184922121	-1093.056244106345	936.5181773903416	481.2398998270306	-1164.708211781748	994.4745884189316	388.5913653570212	-1095.958426173117	935.9871377002864	310.4953224429105	-1150.391731479491	957.7449576460572	175.9372382104645	-1104.748758294529	945.353490956727	119.1169061560433	-1259.265876102786	979.9851203815434	87.28345749778799	-1211.323689872887	900.0730366657684	149.8231796481938	-1031.948621034828	
504	146.008	821.8023453897326	1544.443131248024	-906.0898855360435	816.1936690709448	1321.325185335814	-876.7826489925749	877.4282257718536	1489.842957188546	-1053.143603331858	700.0608248940907	1547.920601122752	-1026.742217162308	992.2288340419176	1537.957117036364	-957.9349125058809	723.2089902114951	1026.968367393268	-1046.097031052079	950.926296521391	1060.019433376526	-1054.822729454184	816.0034995255018	1110.362444091491	-873.0781582331762	847.4960931672673	1112.110864488045	-869.8241738038031	680.4072828980688	1130.85054847569	-1030.690592926809	1005.492409553121	1155.035600121125	-957.5185938421489	659.8868274493606	922.1795060122438	-929.4556060266193	743.0622605488956	725.9670162489649	-980.745199335374	694.8055188191323	701.8477444145499	-838.8824590320404	723.0620742245992	571.0534938538484	-772.8529622372484	775.677119024686	468.4709507885245	-773.1140586637049	723.1280268716869	433.4726541476232	-643.2116472637058	780.4114889775508	337.088611374996	-643.2322402347711	754.8020339458255	269.0386527943804	-512.8475808936355	776.188995257809	109.1264627697231	-559.3723189455751	737.8983451998681	133.3094795717312	-500.3557921624951	810.1437298615357	311.1539976994725	-444.1520996481424	1034.65103200201	946.0156613955851	-994.7126701573519	952.6673298342763	825.9900193827268	-1145.125167399011	999.2943603077308	686.276510816085	-1059.764938100606	985.6940234659206	577.7505786711175	-1090.140955007384	936.6671447461424	480.80810986946	-1164.313829980228	994.5489778498318	386.3686826341792	-1098.076591246718	936.1779204634	309.7880707199791	-1155.015686761029	957.7686041383181	173.5437446176739	-1113.398957352453	944.9692643680369	120.6703755844113	-1269.668200281234	979.310666846319	87.15296693962631	-1222.604640469262	900.0259774363733	145.6611154288111	-1041.262818063529	
